<svg xmlns="http://www.w3.org/2000/svg" viewBox="0 0 224.47 205.15" role="img" aria-label="ShopeePay">
  <path fill="#ee4d2d" d="M203.1,42.75H32.64a9.4,9.4,0,0,1-9.4-9.4,4.27,4.27,0,0,1,4.27-4.27H180.27a4.28,4.28,0,0,0,4.28-4.28V9.4A9.39,9.39,0,0,0,174.32,0L19.52,13.71A21.36,21.36,0,0,0,0,35V183.78a21.37,21.37,0,0,0,21.37,21.37H203.1a21.37,21.37,0,0,0,21.37-21.37V64.12A21.37,21.37,0,0,0,203.1,42.75ZM150.44,154.54A29.78,29.78,0,0,1,132,178.8a46.74,46.74,0,0,1-19.72,3.37,64,64,0,0,1-26.88-6.91,67.27,67.27,0,0,1-10.78-7.36c-.76-.64-1.15-1.2-.42-2.23S78,160,78.51,159.3a1.72,1.72,0,0,1,2.72-.27l1.34,1c8,6.21,18.29,10.87,29.73,11.31,14.43-.19,24.9-6.62,26.77-16.57,2.06-11-6.69-20.38-23.55-25.63-5.36-1.67-18.83-7-21.32-8.47Q76.59,110.42,77.77,93.83C79,78.52,93.25,67.05,111.39,67a61.59,61.59,0,0,1,23.87,4.89,62.67,62.67,0,0,1,9.34,5.06,1.83,1.83,0,0,1,.65,2.67c-.72,1.19-2.85,4.51-3.71,5.89-.63,1-1.4,1-2.5.36a50.36,50.36,0,0,0-27.4-8.46C99.25,77.63,89.91,84.94,89.29,95c-.16,9,6.77,15.62,21.47,20.64C141.12,125.3,152.62,136.68,150.44,154.54Z"/>
</svg>
