<?xml version="1.0" encoding="UTF-8" standalone="no"?>
<!-- Creator: CorelDRAW -->

<svg
   xmlns:dc="http://purl.org/dc/elements/1.1/"
   xmlns:cc="http://creativecommons.org/ns#"
   xmlns:rdf="http://www.w3.org/1999/02/22-rdf-syntax-ns#"
   xmlns:svg="http://www.w3.org/2000/svg"
   xmlns="http://www.w3.org/2000/svg"
   xmlns:sodipodi="http://sodipodi.sourceforge.net/DTD/sodipodi-0.dtd"
   xmlns:inkscape="http://www.inkscape.org/namespaces/inkscape"
   xml:space="preserve"
   width="3.6704326in"
   height="0.6469in"
   style="fill-rule:evenodd;image-rendering:optimizeQuality;shape-rendering:geometricPrecision;text-rendering:geometricPrecision"
   viewBox="0 0 3670.9999 646.9"
   version="1.1"
   id="svg2831"
   sodipodi:docname="Bankindonesialogo.svg"
   inkscape:version="0.92.4 (5da689c313, 2019-01-14)"><metadata
   id="metadata2835"><rdf:RDF><cc:Work
       rdf:about=""><dc:format>image/svg+xml</dc:format><dc:type
         rdf:resource="http://purl.org/dc/dcmitype/StillImage" /><dc:title></dc:title></cc:Work></rdf:RDF></metadata><sodipodi:namedview
   pagecolor="#ffffff"
   bordercolor="#666666"
   borderopacity="1"
   objecttolerance="10"
   gridtolerance="10"
   guidetolerance="10"
   inkscape:pageopacity="0"
   inkscape:pageshadow="2"
   inkscape:window-width="1920"
   inkscape:window-height="1001"
   id="namedview2833"
   showgrid="false"
   fit-margin-top="0"
   fit-margin-left="0"
   fit-margin-right="0"
   fit-margin-bottom="0"
   inkscape:zoom="0.81490444"
   inkscape:cx="172.86928"
   inkscape:cy="30.139341"
   inkscape:window-x="-9"
   inkscape:window-y="-9"
   inkscape:window-maximized="1"
   inkscape:current-layer="svg2831" />
 <defs
   id="defs2820">
  <style
   type="text/css"
   id="style2818">
   <![CDATA[
    .fil0 {fill:#18265C}
    .fil1 {fill:#FFFFFF}
   ]]>
  </style>
 </defs>
 <g
   id="Layer 1"
   transform="translate(-366,-167.07729)">
  <g
   id="g2828">
   <path
   class="fil0"
   d="m 366,490 c 0,-178 145,-323 323,-323 179,0 324,145 324,323 0,179 -145,324 -324,324 C 511,814 366,669 366,490 Z"
   id="path2822"
   inkscape:connector-curvature="0"
   style="fill:#18265c" />
   <path
   class="fil1"
   d="m 751,473 c -40,11 -80,14 -103,14 v -19 c 79,0 161,-32 161,-105 0,-36 -34,-71 -69,-71 H 627 v 364 c 0,16 13,29 28,29 h 90 c 41,0 88,-43 88,-96 0,-52 -63,-109 -82,-116 z M 499,691 h 24 c 19,0 35,-15 35,-35 V 331 c 0,-1 0,-3 0,-4 0,-19 -16,-35 -35,-35 h -3 -21 v -15 h 270 c 59,0 89,37 89,86 0,49 -25,79 -68,97 18,6 99,60 99,129 0,81 -87,118 -131,118 H 499 Z M 683,451 V 307 h 51 v 134 c -16,6 -38,9 -51,10 z m 0,223 V 499 c 17,-1 33,-3 51,-6 v 181 z m 0,47 v -5 h 51 v 5 c 0,12 8,22 19,25 h 27 v 15 H 637 v -15 h 27 c 11,-3 19,-13 19,-25 z m 75,-480 c -13,0 -24,11 -24,25 h -51 c 0,-14 -11,-25 -25,-25 h -21 v -15 h 143 v 15 z"
   id="path2824"
   inkscape:connector-curvature="0"
   style="fill:#ffffff" />
   <path
   class="fil0"
   d="m 3907,441 30,68 h -62 z m 3,-80 h -2 l -99,197 c -7,14 -13,25 -17,32 -5,8 -8,14 -11,18 -4,5 -6,8 -9,11 h 62 c 0,-10 2,-20 5,-30 3,-9 6,-17 8,-22 l 13,-27 h 91 l 15,34 c 4,10 7,19 8,26 2,7 2,14 2,19 h 61 c -5,-6 -10,-15 -17,-25 -6,-10 -14,-25 -23,-45 z m -218,2 c 3,7 6,16 8,25 1,10 2,21 2,36 v 122 c 0,14 0,25 -1,34 -1,9 -2,17 -4,23 -1,6 -3,11 -5,16 h 58 c -4,-13 -6,-24 -8,-34 -1,-10 -2,-22 -2,-36 V 431 c 1,-19 2,-33 3,-43 2,-10 5,-18 7,-25 z m -37,9 c -6,-3 -13,-5 -22,-8 -8,-3 -19,-4 -30,-4 -22,0 -40,8 -54,22 -14,14 -22,31 -22,52 0,13 2,24 8,32 5,9 13,18 24,26 12,8 26,18 45,29 4,2 8,6 13,12 5,6 8,13 8,22 0,9 -4,18 -11,25 -7,7 -16,11 -27,11 -12,-1 -22,-4 -30,-11 -8,-6 -15,-13 -21,-20 v 54 c 6,2 13,4 19,5 7,1 16,2 26,2 27,0 48,-7 63,-21 16,-13 23,-31 24,-52 0,-12 -3,-24 -10,-35 -7,-10 -19,-21 -38,-31 -16,-9 -29,-18 -39,-26 -9,-8 -14,-18 -14,-30 0,-10 4,-18 11,-25 8,-6 17,-9 28,-9 12,0 21,2 29,6 8,5 14,9 20,14 z m -292,-9 c 3,11 6,23 7,34 2,12 2,22 2,31 v 125 c 0,16 -1,30 -3,40 -2,10 -4,19 -6,26 h 134 l 19,-42 c -18,6 -33,10 -44,13 -12,2 -22,4 -32,4 -9,1 -19,1 -29,1 v -94 c 6,1 12,1 17,2 5,0 11,2 17,3 7,2 15,4 24,6 l 22,-35 h -80 v -90 c 13,0 24,0 34,3 11,2 23,6 37,12 l 19,-39 z m -287,0 c 7,6 13,11 18,16 5,5 10,11 16,18 v 155 c 0,1 0,6 0,13 0,8 -1,16 -2,26 -2,10 -4,19 -6,28 h 54 c -4,-11 -6,-23 -8,-37 -2,-13 -2,-26 -2,-38 V 443 l 109,139 c 5,6 9,12 13,18 4,6 7,13 9,19 h 48 c -2,-5 -4,-12 -6,-21 -2,-9 -3,-23 -3,-43 V 418 c 0,-14 1,-25 2,-33 1,-8 3,-16 5,-22 h -50 c 2,5 3,10 4,15 1,6 2,13 3,22 0,9 0,21 0,37 V 553 L 3164,406 c -9,-12 -16,-21 -19,-27 -3,-5 -6,-11 -8,-16 z m -237,119 c 0,-16 3,-32 10,-46 7,-14 17,-26 30,-35 12,-8 27,-13 45,-13 20,0 37,6 53,17 15,11 26,25 35,42 8,17 12,34 12,53 1,13 -3,27 -9,42 -6,14 -15,26 -27,36 -13,10 -28,15 -47,15 -17,0 -33,-4 -49,-13 -15,-9 -28,-21 -38,-38 -10,-16 -15,-36 -15,-60 z m -43,6 c 0,23 5,44 16,64 11,20 26,36 46,49 20,13 44,20 72,20 24,0 47,-5 67,-16 20,-11 36,-26 48,-45 13,-20 19,-43 19,-70 0,-22 -5,-43 -14,-63 -10,-19 -24,-35 -43,-47 -19,-13 -42,-19 -71,-20 -29,1 -55,8 -76,21 -21,13 -37,29 -48,49 -11,19 -16,39 -16,58 z m -164,-55 c 0,-6 0,-14 0,-22 1,-9 1,-17 2,-25 27,4 48,12 62,24 15,12 25,25 30,40 6,14 8,27 8,40 0,14 -3,28 -9,43 -6,15 -16,29 -31,40 -15,11 -35,18 -60,21 -1,-6 -1,-12 -1,-18 -1,-5 -1,-11 -1,-17 0,-6 0,-14 0,-24 z m -38,108 c 0,16 -1,28 -2,38 -1,10 -2,17 -3,23 -2,7 -4,12 -6,17 h 62 c 28,0 52,-6 72,-17 20,-12 35,-27 46,-46 10,-19 16,-40 16,-63 0,-12 -2,-25 -6,-38 -4,-13 -10,-26 -20,-38 -13,-17 -28,-29 -44,-37 -16,-8 -32,-13 -49,-15 -17,-2 -34,-3 -50,-3 -5,0 -10,0 -14,1 l -13,1 c 2,5 4,14 7,25 2,11 4,26 4,44 z M 2298,363 c 7,6 13,11 18,16 5,5 11,11 16,18 v 155 c 0,1 0,6 0,13 0,8 -1,16 -2,26 -2,10 -3,19 -6,28 h 54 c -4,-11 -6,-23 -8,-37 -1,-13 -2,-26 -2,-38 V 443 l 109,139 c 5,6 9,12 13,18 4,6 7,13 9,19 h 48 c -2,-5 -4,-12 -6,-21 -2,-9 -3,-23 -3,-43 V 418 c 0,-14 1,-25 2,-33 1,-8 3,-16 5,-22 h -50 c 2,5 3,10 4,15 1,6 2,13 3,22 0,9 1,21 1,37 V 553 L 2386,406 c -9,-12 -16,-21 -19,-27 -3,-5 -6,-11 -8,-16 z m -79,0 c 3,7 6,16 7,25 2,10 3,21 3,36 v 122 c 0,14 -1,25 -2,34 -1,9 -2,17 -3,23 -2,6 -3,11 -5,16 h 58 c -4,-13 -6,-24 -8,-34 -1,-10 -2,-22 -2,-36 V 431 c 0,-19 1,-33 3,-43 2,-10 4,-18 7,-25 z m -346,1 c 3,8 5,17 7,27 1,9 2,19 2,27 v 134 c 0,11 -1,23 -2,34 -2,11 -5,22 -8,33 h 58 c -2,-5 -4,-14 -6,-25 -2,-11 -3,-24 -3,-39 v -74 l 70,88 c 10,13 17,23 20,30 4,8 6,14 8,20 h 62 c -8,-8 -14,-14 -17,-18 -4,-4 -8,-9 -12,-15 l -87,-109 46,-55 c 12,-15 23,-26 33,-36 10,-9 19,-17 28,-23 h -65 c -1,4 -3,8 -5,12 -2,5 -7,12 -15,21 l -66,81 v -51 c 0,-11 0,-21 1,-28 1,-7 2,-14 4,-19 1,-5 3,-11 5,-16 z m -289,-1 c 7,6 14,11 18,16 5,5 11,11 17,18 v 155 c 0,1 -1,6 -1,13 0,8 -1,16 -2,26 -1,10 -3,19 -6,28 h 54 c -3,-11 -6,-23 -8,-37 -1,-13 -2,-26 -2,-38 V 443 l 109,139 c 5,6 9,12 13,18 4,6 7,13 9,19 h 48 c -2,-5 -4,-12 -6,-21 -2,-9 -3,-23 -3,-43 V 418 c 0,-14 1,-25 2,-33 2,-8 3,-16 5,-22 h -49 c 1,5 2,10 3,15 1,6 2,13 3,22 0,9 1,21 1,37 V 553 L 1673,406 c -10,-12 -17,-21 -20,-27 -3,-5 -6,-11 -8,-16 z m -135,78 30,68 h -63 z m 3,-80 h -2 l -99,197 c -7,14 -13,25 -18,32 -4,8 -8,14 -11,18 -3,5 -6,8 -9,11 h 63 c 0,-10 1,-20 4,-30 4,-9 6,-17 9,-22 l 13,-27 h 90 l 15,34 c 5,10 8,19 9,26 1,7 2,14 2,19 h 61 c -5,-6 -10,-15 -17,-25 -6,-10 -14,-25 -23,-45 z m -250,124 c 16,5 29,10 38,17 9,8 15,15 18,23 4,8 5,15 5,22 0,3 -1,9 -3,17 -2,8 -7,15 -16,22 -9,7 -23,10 -42,10 z m 0,-100 c 14,1 26,5 35,12 10,6 15,17 15,32 0,14 -5,26 -15,34 -9,8 -21,14 -35,17 z m -47,-22 c 1,3 2,6 4,11 1,4 2,11 3,20 1,9 2,21 2,36 v 115 c 0,8 -1,19 -2,32 -1,14 -4,27 -8,42 h 58 c 8,0 17,0 26,-2 9,-2 17,-4 24,-7 11,-4 21,-11 30,-23 9,-11 14,-24 14,-38 0,-15 -5,-28 -14,-39 -8,-11 -19,-21 -32,-28 4,-3 9,-7 15,-12 5,-5 9,-11 13,-18 4,-7 6,-15 6,-26 0,-8 -2,-17 -7,-26 -5,-10 -13,-19 -25,-26 -12,-7 -29,-11 -50,-11 z"
   id="path2826"
   inkscape:connector-curvature="0"
   style="fill:#18265c" />
  </g>
 </g>
</svg>