<svg xmlns="http://www.w3.org/2000/svg" viewBox="0 0 1215.33 232.97"><defs><style>.cls-1,.cls-2{fill:#ee4d2d;}.cls-2{fill-rule:evenodd;}</style></defs><g id="Layer_2" data-name="Layer 2"><g id="Layer_1-2" data-name="Layer 1"><path class="cls-1" d="M203.1,42.75H32.64a9.4,9.4,0,0,1-9.4-9.4,4.27,4.27,0,0,1,4.27-4.27H180.27a4.28,4.28,0,0,0,4.28-4.28V9.4A9.39,9.39,0,0,0,174.32,0L19.52,13.71A21.36,21.36,0,0,0,0,35V183.78a21.37,21.37,0,0,0,21.37,21.37H203.1a21.37,21.37,0,0,0,21.37-21.37V64.12A21.37,21.37,0,0,0,203.1,42.75ZM150.44,154.54A29.78,29.78,0,0,1,132,178.8a46.74,46.74,0,0,1-19.72,3.37,64,64,0,0,1-26.88-6.91,67.27,67.27,0,0,1-10.78-7.36c-.76-.64-1.15-1.2-.42-2.23S78,160,78.51,159.3a1.72,1.72,0,0,1,2.72-.27l1.34,1c8,6.21,18.29,10.87,29.73,11.31,14.43-.19,24.9-6.62,26.77-16.57,2.06-11-6.69-20.38-23.55-25.63-5.36-1.67-18.83-7-21.32-8.47Q76.59,110.42,77.77,93.83C79,78.52,93.25,67.05,111.39,67a61.59,61.59,0,0,1,23.87,4.89,62.67,62.67,0,0,1,9.34,5.06,1.83,1.83,0,0,1,.65,2.67c-.72,1.19-2.85,4.51-3.71,5.89-.63,1-1.4,1-2.5.36a50.36,50.36,0,0,0-27.4-8.46C99.25,77.63,89.91,84.94,89.29,95c-.16,9,6.77,15.62,21.47,20.64C141.12,125.3,152.62,136.68,150.44,154.54Z"/><path class="cls-1" d="M326.42,104.09c-17.33-5.56-25.31-12.88-25.32-23C301.6,70,312,61.54,326.26,61a57.13,57.13,0,0,1,31.8,9.51c2.55,1.55,3.81,1,5.3-1,.16-.26.71-1.05,2.53-3.65h0c1.72-2.47,2.39-3.43,2.56-3.73,1.25-2.33,1.25-3.58-1.31-5.39a78.22,78.22,0,0,0-11.78-6.11,76.51,76.51,0,0,0-29.71-5.53c-22.81.5-40.66,15.29-41.84,34.77-.75,14.08,6.44,25.39,21.35,33.71,4.24,2.23,19.43,7.92,26.39,10,19.87,5.8,30.05,16.36,28,28.67-1.91,11.2-13.76,18.74-30.57,19.26-12.28-.25-24.6-4.75-35.27-12.73l-.83-.62-.83-.61c-2.34-1.61-4-1.61-5.65.81-.06.1-1.35,2.06-2.64,4-1.51,2.27-2.16,3.26-2.51,3.81-1.38,2-1.14,3.14.87,4.83h0a82.82,82.82,0,0,0,13.57,8.9,79.33,79.33,0,0,0,33.44,8,58.26,58.26,0,0,0,24.57-4.63c13.07-5.81,21.41-17.15,22.87-31.1C378.92,129.48,364.1,115.37,326.42,104.09Z"/><path class="cls-1" d="M432.12,98.44A42.24,42.24,0,0,0,407,106.75V48.25c0-2.29-.9-3.17-3.17-3.17H393.21c-2.52,0-3.17.84-3.17,3.17V184.17c0,2.24.65,3.17,3.17,3.17H403.8c2.3,0,3.17-1,3.17-3.17V139.78c0-15.16,11.33-24.71,25.15-24.71s25.15,9.55,25.15,24.81v44.29c0,2.57.63,3.17,3.17,3.17H471c2.52,0,3.18-.6,3.18-3.17V139.75C474.09,117,455.11,98.44,432.12,98.44Z"/><path class="cls-1" d="M533.14,98.54c-25.13,0-45.51,20-45.51,44.59s20.38,44.6,45.51,44.6,45.5-20,45.5-44.6S558.26,98.54,533.14,98.54Zm0,72.79c-15.92,0-28.82-12.64-28.82-28.22s12.9-28.22,28.82-28.22,28.81,12.64,28.81,28.22S549,171.33,533.13,171.33Z"/><path class="cls-1" d="M877.15,149.13h.24a5.3,5.3,0,0,0,5-5.36c0-.14,0-.26,0-.38v-.33c0-24.62-19.3-44.59-43.14-44.59s-43.14,20-43.14,44.59a45.71,45.71,0,0,0,.33,5.49l.06.58h0A43.46,43.46,0,0,0,807.4,172.7l.05.05A45.79,45.79,0,0,0,833,186.86l.78.15v0l1.17.19c13.67,1.65,25.18-.57,34.51-5.27a42.42,42.42,0,0,0,6.5-4c.64-.48,1.19-.93,1.64-1.33.28-.24.47-.42.57-.52,2.41-2.49,2.52-3.56,1.08-5.81-3.34-5.32-5.22-7.92-5.22-7.92-1.3-1.63-2.48-2-4.15-.53-.29.26-.56.43-.7.58-10,8.85-23,10.59-34.43,8.21a38.25,38.25,0,0,1-6.54-2.39,27.6,27.6,0,0,1-15-19.06h63.94Zm-62.9-16.35c3.3-10.79,13.3-18,25-18a27.62,27.62,0,0,1,25.42,18Z"/><path class="cls-1" d="M637.35,98.3a44.58,44.58,0,0,0-28.29,10.07v-6.9c0-2.4-.66-3.17-3.18-3.17H595.81c-2.52,0-3.17.71-3.17,3.17V229.8c0,2.33.65,3.17,3.17,3.17h10.07c2.52,0,3.18-.82,3.18-3.17V177.44A44.65,44.65,0,1,0,637.35,98.3Zm0,72.8a28.26,28.26,0,0,1-28.28-27.5v-1.45a28.29,28.29,0,1,1,28.28,28.95Z"/><path class="cls-1" d="M782.48,143.06c0-24.62-19.31-44.59-43.14-44.59s-43.14,20-43.14,44.59a45.7,45.7,0,0,0,.32,5.49l.07.58h0a43.4,43.4,0,0,0,10.93,23.57l0,.05a45.82,45.82,0,0,0,25.58,14.11l.78.15v0l1.16.19c13.67,1.65,25.18-.57,34.51-5.27a42.42,42.42,0,0,0,6.5-4c.64-.48,1.19-.93,1.65-1.33.27-.24.46-.42.56-.52,2.41-2.49,2.52-3.56,1.08-5.81-3.34-5.32-5.21-7.92-5.21-7.92-1.31-1.63-2.49-2-4.16-.53-.29.26-.56.43-.7.58-10,8.85-23,10.59-34.42,8.21a38.36,38.36,0,0,1-6.55-2.39,27.6,27.6,0,0,1-15-19.06h64.18a5.3,5.3,0,0,0,5-5.36c0-.14,0-.26,0-.38A2.3,2.3,0,0,0,782.48,143.06Zm-68.11-10.28c3.31-10.79,13.31-18,25-18a27.61,27.61,0,0,1,25.42,18Z"/><path class="cls-2" d="M909.61,182.91V49.65a5,5,0,0,1,5-5h45c25.33.33,45.94,21,45.94,46s-20.62,45.66-46,46H927v46.28a5,5,0,0,1-5,5h-7.43A5,5,0,0,1,909.61,182.91ZM927,118.51H959.4a28.27,28.27,0,0,0,20.07-8.27,27.93,27.93,0,0,0,8.31-19.94,28.29,28.29,0,0,0-28.3-28.22H927Z"/><path class="cls-2" d="M1120.26,227.86l34.06-58.53-40.79-66.77a3,3,0,0,1,2.56-4.56h16.51l32.81,53.2L1197.09,98h15.24a3,3,0,0,1,2.58,4.52l-76.77,129.85h-15.29A3,3,0,0,1,1120.26,227.86Z"/><path class="cls-2" d="M1082,182.23v-7.7l-2.54,2.11a46.15,46.15,0,0,1-29.51,10.59c-25,0-45.33-20-45.33-44.62,0-24.22,20.34-43.93,45.33-43.93a46.15,46.15,0,0,1,29.51,10.59l2.54,2.11v-7.7a5,5,0,0,1,5-5h10.37v88.55H1087A5,5,0,0,1,1082,182.23Zm-32.17-66.94c-15.71,0-28.49,12.28-28.49,27.37s13,28.05,28.49,28.05,28.49-12.84,28.49-28.05S1065.49,115.29,1049.78,115.29Z"/></g></g></svg>